<?xml version="1.0" encoding="UTF-8" standalone="no"?>
<!DOCTYPE svg PUBLIC "-//W3C//DTD SVG 1.1//EN" "http://www.w3.org/Graphics/SVG/1.1/DTD/svg11.dtd">
<svg width="300.00" height="300.00" viewBox="0.00 0.00 300.00 300.00" xmlns="http://www.w3.org/2000/svg" xmlns:xlink="http://www.w3.org/1999/xlink">
<g stroke-linecap="round" id="Layer_1">
<path d="M150.55,20.34 C156.99,20.35 172.74,22.24 180.01,23.86 C188.13,25.70 201.23,30.60 207.76,33.81 C214.51,37.16 226.99,45.01 232.65,49.72 C238.32,54.46 248.66,65.07 253.38,70.99 C257.37,76.02 265.41,89.60 268.57,96.42 C272.07,104.00 276.05,116.25 277.68,124.44 C279.12,131.82 280.59,147.53 280.32,153.94 C279.98,161.51 277.85,176.17 276.05,183.34 C274.24,190.48 268.75,204.17 265.26,210.85 C261.86,217.29 254.14,228.96 248.65,235.22 C243.72,240.81 232.09,251.59 226.89,255.39 C221.67,259.17 207.83,266.90 200.99,269.86 C193.34,273.15 179.86,276.89 172.69,278.13 C165.26,279.40 150.55,280.38 143.21,279.90 C135.84,279.40 121.24,276.89 113.94,274.88 C107.76,273.15 93.27,266.90 86.71,263.25 C79.43,259.17 69.01,251.59 62.88,245.93 C57.38,240.81 46.96,228.96 43.41,223.62 C39.24,217.29 32.35,204.17 29.59,197.32 C26.86,190.48 23.25,176.17 22.16,168.71 C21.12,161.51 20.51,147.53 21.27,139.24 C21.98,131.82 25.05,116.25 27.03,110.12 C29.03,104.00 35.69,89.60 39.48,83.18 C43.73,76.02 52.44,65.07 57.51,59.85 C62.78,54.46 74.11,45.01 80.33,41.08 C86.59,37.16 99.87,30.60 106.96,27.93 C112.97,25.70 128.36,22.24 135.82,21.33 C139.52,20.90 147.73,20.35 150.55,20.34 Z" fill="none" stroke="rgb(5, 56, 107)" stroke-width="30.00" stroke-opacity="1.00" stroke-linejoin="round"/>
<path d="M214.40,185.94 C208.99,194.83 203.71,202.22 197.55,207.26 C192.02,211.72 179.20,218.77 172.57,220.77 C166.03,222.71 151.74,224.17 144.81,223.44 C137.74,222.65 124.20,218.67 118.04,215.32 C111.81,211.88 100.82,203.01 96.41,197.55 C91.97,191.98 85.19,179.56 83.21,172.83 C81.22,165.98 79.71,151.91 80.44,144.92 C81.22,137.84 85.19,124.26 88.54,118.08 C91.97,111.84 100.82,100.81 106.26,96.39 C111.81,91.94 124.20,85.15 130.91,83.15 C137.74,81.17 151.73,79.65 158.71,80.33 C162.25,80.70 169.22,82.03 172.56,83.02 C179.19,85.04 191.91,92.11 197.64,96.70 C204.38,102.18 208.79,108.69 213.46,116.37" fill="none" stroke="rgb(5, 56, 107)" stroke-width="30.00" stroke-opacity="1.00" stroke-linejoin="round"/>
<path d="M206.76,129.23 L233.07,128.50" fill="none" stroke="rgb(5, 56, 107)" stroke-width="5.00" stroke-opacity="1.00" stroke-linejoin="round"/>
<path d="M231.96,178.93 L226.73,190.00" fill="none" stroke="rgb(5, 56, 107)" stroke-width="5.00" stroke-opacity="1.00" stroke-linejoin="round"/>
<path d="M233.91,173.52 L207.29,173.13" fill="none" stroke="rgb(5, 56, 107)" stroke-width="5.00" stroke-opacity="1.00" stroke-linejoin="round"/>
<path d="M228.43,177.02 L218.00,194.56" fill="none" stroke="rgb(5, 56, 107)" stroke-width="5.00" stroke-opacity="1.00" stroke-linejoin="round"/>
<path d="M231.75,174.90 L222.51,191.93" fill="none" stroke="rgb(5, 56, 107)" stroke-width="5.00" stroke-opacity="1.00" stroke-linejoin="round"/>
<path d="M226.86,173.42 L220.23,190.80" fill="none" stroke="rgb(5, 56, 107)" stroke-width="5.00" stroke-opacity="1.00" stroke-linejoin="round"/>
<path d="M223.43,173.37 L208.41,195.60" fill="none" stroke="rgb(5, 56, 107)" stroke-width="5.00" stroke-opacity="1.00" stroke-linejoin="round"/>
<path d="M225.24,123.65 L216.03,109.62" fill="none" stroke="rgb(5, 56, 107)" stroke-width="5.00" stroke-opacity="1.00" stroke-linejoin="round"/>
<path d="M225.25,111.69 L231.66,124.27 L216.03,109.62" fill="none" stroke="rgb(5, 56, 107)" stroke-width="5.00" stroke-opacity="1.00" stroke-linejoin="round"/>
</g>
</svg>
